<?xml version="1.0" encoding="utf-8"?>
<svg version="1.0" width="2167.000000pt" height="1897.000000pt" viewBox="-785.284 -77.558 3555.213 1024.462" preserveAspectRatio="xMidYMid meet" xmlns="http://www.w3.org/2000/svg">
  <defs/>
  <path d="M -156.357 -13.942 C -190.157 -11.242 -220.957 -2.942 -250.457 11.558 C -277.057 24.658 -299.357 40.958 -321.357 63.558 C -356.157 99.358 -376.757 136.458 -389.957 187.358 C -393.657 201.358 -396.457 203.358 -415.857 204.958 C -426.557 205.858 -441.557 209.058 -454.357 213.158 C -504.757 229.258 -544.657 269.258 -562.757 321.758 C -570.357 343.858 -573.457 363.958 -572.557 386.358 C -571.357 417.958 -564.757 435.758 -536.557 483.258 C -529.557 494.958 -523.857 504.658 -523.857 504.858 C -523.857 505.058 -526.657 507.358 -530.057 510.058 C -539.457 517.358 -558.157 535.758 -566.657 545.958 C -596.057 581.058 -612.757 625.058 -614.557 671.958 C -615.157 689.058 -614.257 695.258 -609.757 704.258 C -606.457 710.858 -598.357 719.158 -592.057 722.358 C -575.157 730.958 -555.657 728.258 -542.557 715.658 C -532.757 706.258 -529.557 697.658 -526.757 673.958 C -523.857 649.158 -520.957 638.758 -512.357 622.858 C -497.457 595.458 -470.557 571.958 -442.857 562.058 C -432.757 558.458 -420.457 556.058 -414.957 556.658 L -411.557 556.958 L -416.157 563.458 C -437.557 593.958 -446.957 610.358 -457.757 636.058 C -477.657 683.558 -487.357 740.258 -485.457 798.158 C -484.557 825.658 -482.457 833.358 -472.757 843.958 C -464.157 853.258 -454.257 857.458 -440.957 857.458 C -423.957 857.458 -410.757 849.958 -403.857 836.458 C -398.557 826.158 -397.657 819.358 -396.757 781.958 C -395.957 746.658 -395.457 741.158 -391.857 720.858 C -384.857 681.458 -366.557 641.458 -342.457 612.658 C -328.257 595.558 -304.557 574.558 -279.357 556.758 C -249.857 535.758 -221.757 522.758 -191.257 515.958 C -147.957 506.258 -96.957 507.858 -61.757 519.958 C -25.757 532.458 30.343 567.558 57.043 594.358 C 87.843 625.158 108.143 663.358 117.143 707.158 C 121.343 727.158 122.043 736.058 125.143 799.958 C 126.143 822.858 127.743 829.658 134.043 839.158 C 141.843 850.758 152.143 856.458 166.643 857.258 C 188.343 858.358 203.543 847.858 210.743 826.858 C 213.243 819.458 213.443 817.558 213.943 796.358 C 215.143 735.558 205.843 683.158 185.043 633.958 C 175.743 611.958 160.443 585.158 147.643 568.458 C 142.943 562.358 139.743 556.558 140.543 555.758 C 141.443 554.858 158.243 558.258 166.743 561.058 C 206.743 574.058 235.143 602.358 248.643 642.758 C 251.943 652.658 256.143 673.158 256.143 679.758 C 256.143 681.558 256.843 686.058 257.643 689.858 C 262.443 712.458 278.943 727.358 299.343 727.458 C 319.243 727.558 335.243 715.558 341.443 695.958 C 347.043 678.158 341.943 635.058 330.643 604.958 C 319.743 575.758 307.143 557.958 270.543 519.758 C 260.943 509.758 253.143 501.158 253.143 500.458 C 253.143 499.858 256.043 495.658 259.543 491.158 C 282.443 461.758 295.843 432.058 300.243 401.558 C 301.743 391.158 300.943 364.258 298.743 352.658 C 286.043 283.758 244.443 233.258 184.343 213.458 C 170.843 209.058 156.443 206.058 140.743 204.458 C 129.043 203.258 125.343 201.958 122.843 198.058 C 121.943 196.758 119.643 189.558 117.743 182.258 C 112.543 162.458 107.943 149.758 99.143 131.958 C 77.243 87.358 42.743 49.258 1.143 23.958 C -28.357 5.958 -66.657 -7.342 -102.357 -12.042 C -114.057 -13.542 -146.357 -14.742 -156.357 -13.942 Z M -112.157 74.958 C -65.857 81.558 -24.057 106.458 3.943 144.258 C 37.643 189.658 47.143 249.858 29.043 302.758 C 7.143 366.658 -49.457 412.158 -117.857 420.558 C -131.857 422.258 -155.557 421.158 -170.457 418.058 C -255.857 400.258 -316.457 319.658 -309.057 233.658 C -307.057 210.658 -301.557 190.758 -291.757 171.058 C -264.757 116.858 -214.157 81.458 -153.357 74.158 C -145.457 73.158 -121.257 73.658 -112.157 74.958 Z M 144.943 293.458 C 188.743 303.958 219.243 348.558 211.743 391.258 C 208.443 410.258 200.643 425.158 186.743 439.058 C 175.943 449.858 165.943 456.058 152.143 460.658 C 144.043 463.258 140.643 463.758 129.443 464.258 C 118.243 464.658 114.743 464.358 106.843 462.558 C 89.343 458.458 76.043 450.658 62.843 436.358 L 54.243 427.058 L 56.443 424.458 C 90.243 383.358 104.743 356.958 116.743 314.058 C 122.443 293.958 124.143 291.458 131.843 291.458 C 134.443 291.458 140.343 292.358 144.943 293.458 Z M -397.357 294.458 L -393.157 296.458 L -389.857 309.258 C -379.557 349.458 -361.457 385.258 -337.157 413.858 C -333.957 417.558 -330.357 421.958 -329.057 423.458 L -326.757 426.258 L -332.657 433.658 C -344.957 448.758 -361.557 459.158 -380.357 463.158 C -389.157 465.058 -410.557 464.358 -419.357 461.958 C -435.857 457.458 -454.157 445.358 -464.857 431.858 C -471.857 423.058 -479.857 407.058 -482.457 396.958 C -485.057 386.658 -484.857 369.458 -481.957 358.458 C -473.457 325.858 -447.957 300.758 -416.857 294.058 C -407.557 292.058 -402.157 292.158 -397.357 294.458 Z" fill="#000000" stroke="none"/>
  <path d="M 1096.533 12.657 C 1058.933 15.657 1026.433 23.457 1002.533 35.357 C 953.833 59.557 924.933 102.357 918.133 160.557 C 913.533 200.257 914.633 298.957 920.133 332.057 C 929.833 390.757 964.933 431.157 1023.133 450.457 C 1054.333 460.757 1081.233 465.157 1113.033 465.157 C 1141.133 465.157 1164.433 461.457 1191.033 452.857 C 1253.933 432.557 1289.933 398.257 1302.933 346.257 C 1307.333 328.657 1308.533 310.757 1305.533 305.157 C 1302.233 298.557 1302.033 298.557 1248.033 298.557 C 1194.733 298.557 1193.933 298.657 1189.533 304.457 C 1188.233 306.257 1185.433 312.157 1183.533 317.557 C 1173.033 346.457 1159.133 360.757 1135.333 367.257 C 1124.733 370.057 1101.233 370.357 1089.533 367.657 C 1062.033 361.457 1044.933 342.057 1040.533 312.057 C 1034.733 273.157 1036.033 178.857 1042.533 153.457 C 1046.733 137.657 1058.133 122.557 1070.833 116.157 C 1082.033 110.457 1087.333 109.557 1109.533 109.557 C 1140.333 109.557 1152.233 112.957 1164.533 125.457 C 1172.333 133.357 1176.833 141.357 1182.633 157.357 C 1188.033 171.957 1191.033 176.157 1197.833 177.957 C 1200.733 178.757 1216.433 179.057 1249.733 178.857 C 1293.233 178.557 1297.833 178.357 1300.733 176.757 C 1306.333 173.757 1307.333 170.357 1306.733 157.157 C 1305.333 124.757 1292.633 94.557 1270.733 71.457 C 1243.733 42.857 1200.233 22.057 1152.533 14.957 C 1139.933 13.057 1107.933 11.757 1096.533 12.657 Z" fill="#000000" stroke="none"/>
  <path d="M 614.533 19.957 C 606.833 21.857 601.433 26.757 597.433 35.557 C 596.233 38.257 580.233 81.457 562.033 131.557 C 507.133 282.257 453.433 430.257 451.533 435.957 C 449.133 443.357 449.833 450.657 453.333 453.657 C 458.033 457.657 464.133 458.157 508.633 457.857 C 549.433 457.557 550.633 457.457 554.633 455.357 C 559.333 452.857 565.133 446.757 566.733 442.557 C 567.433 440.857 571.833 428.957 576.533 416.057 C 586.133 389.657 587.333 386.957 590.133 385.257 C 591.733 384.257 608.933 383.957 670.333 383.957 C 745.233 384.057 748.633 384.057 751.033 385.857 C 753.933 388.057 755.033 390.657 766.133 420.557 C 770.633 432.657 775.133 444.157 776.133 446.257 C 778.633 451.057 784.333 455.657 789.633 456.957 C 795.233 458.357 876.033 458.457 881.133 457.057 C 889.433 454.757 892.533 447.957 889.833 438.057 C 887.033 427.957 743.933 35.657 741.433 31.357 C 738.233 25.857 732.833 21.457 727.433 20.157 C 722.533 18.957 619.533 18.757 614.533 19.957 Z M 673.333 139.257 C 715.433 259.557 725.033 287.157 725.033 287.557 C 725.033 287.857 700.533 288.057 670.533 288.057 C 640.533 288.057 616.033 287.657 616.033 287.257 C 616.033 286.657 665.633 143.957 668.533 136.257 C 669.433 133.757 671.933 135.257 673.333 139.257 Z" fill="#000000" stroke="none"/>
  <path d="M 1339.633 20.557 C 1332.933 22.957 1331.533 25.157 1331.633 32.857 C 1331.733 38.757 1335.333 51.057 1361.733 134.557 C 1378.333 186.757 1406.733 276.757 1425.033 334.557 C 1443.333 392.257 1459.333 441.657 1460.533 444.157 C 1463.333 449.657 1468.433 454.357 1473.733 456.157 C 1476.733 457.257 1489.233 457.557 1535.033 457.557 C 1588.333 457.557 1592.833 457.457 1597.233 455.757 C 1603.533 453.357 1608.233 447.657 1611.433 438.657 C 1613.533 432.957 1677.233 232.257 1727.833 72.057 C 1733.333 54.757 1738.133 38.257 1738.433 35.457 C 1739.433 28.457 1737.533 23.957 1732.433 21.457 C 1728.833 19.657 1725.533 19.557 1685.533 19.257 C 1638.333 18.857 1634.733 19.157 1628.733 24.157 C 1621.933 29.757 1627.033 14.157 1569.433 204.057 C 1550.933 264.857 1535.433 314.957 1535.033 315.457 C 1534.033 316.557 1535.433 321.357 1489.033 166.557 C 1468.033 96.757 1449.733 36.957 1448.333 33.757 C 1445.133 26.657 1440.733 22.657 1433.833 20.557 C 1426.533 18.457 1345.633 18.357 1339.633 20.557 Z" fill="#000000" stroke="none"/>
  <path d="M 1808.033 19.757 C 1802.633 21.757 1800.033 23.657 1797.933 27.357 L 1795.533 31.557 L 1795.233 234.057 C 1795.033 345.457 1795.233 438.857 1795.533 441.757 C 1796.233 447.957 1799.233 452.657 1804.033 455.457 C 1807.433 457.457 1808.933 457.557 1856.533 457.557 C 1901.933 457.557 1905.833 457.457 1909.233 455.757 C 1911.433 454.657 1913.633 452.457 1914.733 450.257 C 1916.433 446.757 1916.533 437.757 1916.833 241.557 C 1916.933 100.657 1916.733 34.957 1916.033 31.457 C 1914.833 25.557 1911.233 21.557 1905.933 20.057 C 1902.433 19.057 1810.833 18.757 1808.033 19.757 Z" fill="#000000" stroke="none"/>
  <path d="M 1205.57 526.304 C 1202.27 527.704 1197.57 533.404 1194.17 540.004 C 1191.47 545.204 1191.77 545.804 1196.57 545.804 C 1202.57 545.704 1207.67 543.104 1216.27 535.404 C 1220.37 531.804 1224.07 528.804 1224.47 528.804 C 1224.97 528.804 1225.27 528.404 1225.27 527.904 C 1225.27 527.004 1214.47 524.804 1210.67 524.804 C 1209.67 524.904 1207.37 525.504 1205.57 526.304 Z" fill="#000000" stroke="none"/>
  <path d="M 685.77 552.804 C 668.37 556.504 657.37 566.704 654.47 581.804 C 651.67 596.304 652.37 631.204 655.77 642.504 C 659.77 656.004 677.47 665.904 697.37 666.004 C 716.77 666.104 730.87 655.204 736.97 635.304 C 738.47 630.304 738.77 625.804 738.77 607.804 C 738.77 588.004 738.57 585.704 736.47 579.204 C 732.47 567.004 723.37 557.804 711.97 554.204 C 705.87 552.304 691.47 551.504 685.77 552.804 Z M 710.57 569.104 C 719.67 574.504 721.97 580.604 722.87 602.204 C 723.57 618.804 722.37 632.804 719.67 638.004 C 717.37 642.604 713.47 646.604 708.77 649.104 C 702.97 652.304 688.57 652.204 682.67 649.104 C 677.77 646.504 672.87 641.104 670.67 636.004 C 667.17 628.004 667.27 589.604 670.77 581.204 C 672.97 575.904 677.77 571.004 683.77 568.104 C 688.17 566.004 689.87 565.704 697.37 566.004 C 704.47 566.304 706.67 566.904 710.57 569.104 Z" fill="#000000" stroke="none"/>
  <path d="M 790.47 553.304 C 777.57 556.104 767.97 562.604 763.27 571.704 C 758.97 580.204 758.07 587.704 758.47 611.804 C 758.87 632.904 759.07 634.704 761.47 641.004 C 766.07 653.204 772.17 658.604 785.77 662.804 C 795.77 665.804 806.27 666.404 814.17 664.404 C 827.27 661.004 836.57 653.804 841.37 643.204 C 844.57 636.204 844.87 634.104 843.07 630.304 C 841.77 627.304 839.07 627.104 833.37 629.404 C 830.07 630.704 829.17 631.704 827.87 635.504 C 825.67 642.004 822.07 646.204 816.57 648.904 C 812.57 650.904 810.27 651.304 802.17 651.304 C 793.47 651.304 792.07 651.004 786.67 648.304 C 777.77 643.704 776.27 640.304 775.07 622.604 C 774.47 613.704 774.47 603.504 775.07 594.104 C 776.07 580.504 776.27 579.204 778.97 575.404 C 782.47 570.504 789.07 567.004 796.87 565.904 C 809.77 564.004 818.67 568.004 826.07 578.804 C 828.97 583.104 831.87 586.004 834.67 587.504 C 840.27 590.504 840.97 590.404 842.27 586.204 C 847.47 570.604 825.97 551.604 803.37 551.904 C 799.77 551.904 793.97 552.604 790.47 553.304 Z" fill="#000000" stroke="none"/>
  <path d="M 1038.37 553.404 C 1025.17 556.204 1015.07 563.704 1012.47 572.704 C 1009.07 583.904 1007.87 617.004 1010.27 633.804 C 1012.37 648.804 1017.27 656.204 1028.67 661.404 C 1047.17 669.804 1076.77 664.404 1086.87 650.704 C 1090.07 646.404 1092.97 638.304 1093.47 632.804 C 1093.77 628.304 1093.77 628.304 1089.97 627.404 C 1084.37 626.004 1081.47 628.004 1077.27 636.004 C 1070.67 648.704 1066.37 651.204 1051.77 651.304 C 1043.27 651.304 1041.07 650.904 1036.97 649.004 C 1034.37 647.704 1030.97 645.004 1029.37 643.104 C 1024.47 637.204 1023.77 632.604 1023.77 607.804 C 1023.77 586.404 1023.87 585.004 1026.07 580.304 C 1030.77 570.004 1036.47 566.604 1049.97 566.004 C 1058.47 565.604 1059.37 565.704 1064.37 568.404 C 1069.07 571.004 1072.37 574.504 1078.57 583.304 C 1079.57 584.704 1082.57 586.904 1085.27 588.304 L 1090.17 590.804 L 1091.37 586.504 C 1093.07 580.504 1092.77 576.704 1090.37 571.904 C 1082.47 556.604 1060.17 548.604 1038.37 553.404 Z" fill="#000000" stroke="none"/>
  <path d="M 1188.57 552.804 C 1170.57 556.104 1159.77 566.104 1155.67 583.404 C 1154.37 589.004 1154.17 594.604 1154.47 612.804 C 1154.87 633.104 1155.07 635.804 1157.07 640.904 C 1162.77 655.404 1172.47 662.404 1190.17 664.804 C 1211.17 667.704 1229.77 659.404 1236.27 644.404 C 1242.07 630.704 1242.67 593.004 1237.27 577.304 C 1233.27 565.704 1225.07 557.604 1213.77 554.204 C 1207.37 552.304 1195.27 551.604 1188.57 552.804 Z M 1210.37 568.504 C 1216.47 571.704 1221.57 577.604 1223.47 584.104 C 1224.37 586.904 1224.77 595.204 1224.77 609.804 C 1224.77 629.504 1224.57 631.704 1222.67 635.804 C 1218.17 645.604 1210.77 650.704 1199.87 651.504 C 1186.47 652.604 1176.07 646.504 1172.77 635.604 C 1170.67 628.604 1169.67 602.204 1171.07 590.604 C 1172.27 581.504 1174.47 575.804 1178.47 572.104 C 1185.77 565.204 1200.57 563.604 1210.37 568.504 Z" fill="#000000" stroke="none"/>
  <path d="M 1437.57 553.304 C 1421.37 556.804 1412.57 566.304 1408.77 584.404 C 1406.27 595.804 1406.17 624.904 1408.57 633.704 C 1413.97 653.804 1426.47 664.404 1445.97 665.604 C 1471.87 667.104 1492.17 653.304 1492.37 634.204 C 1492.47 628.004 1491.67 626.804 1486.67 626.804 C 1483.07 626.804 1479.57 630.204 1476.27 636.804 C 1471.47 646.504 1464.77 650.904 1453.67 651.604 C 1440.97 652.404 1430.87 647.704 1425.97 638.504 C 1423.87 634.504 1423.77 633.204 1423.77 608.804 C 1423.77 584.604 1423.87 583.104 1425.97 579.304 C 1430.87 570.104 1439.47 565.404 1451.27 565.504 C 1463.87 565.504 1470.47 569.704 1476.87 582.004 C 1480.97 589.604 1484.17 591.704 1489.57 590.104 C 1492.67 589.204 1492.77 589.104 1492.57 583.604 C 1491.87 561.404 1465.87 547.204 1437.57 553.304 Z" fill="#000000" stroke="none"/>
  <path d="M 1545.57 552.904 C 1536.27 554.504 1529.47 557.604 1523.87 563.104 C 1513.67 573.204 1511.27 581.804 1511.27 609.004 C 1511.27 630.104 1512.07 636.304 1515.97 644.504 C 1519.07 651.304 1527.57 659.004 1535.07 661.904 C 1542.97 664.904 1561.07 665.704 1570.27 663.404 C 1586.17 659.304 1594.47 648.804 1597.17 629.404 C 1598.57 619.604 1598.57 595.304 1597.17 586.804 C 1595.97 578.704 1591.67 569.304 1586.77 563.904 C 1578.47 554.704 1561.67 550.204 1545.57 552.904 Z M 1567.87 568.104 C 1572.27 570.404 1576.67 574.904 1578.77 579.404 C 1583.47 589.304 1583.37 628.704 1578.67 638.004 C 1574.67 646.104 1567.67 650.604 1557.97 651.504 C 1545.47 652.604 1534.37 646.804 1529.97 636.804 C 1525.67 627.204 1525.97 589.704 1530.37 580.404 C 1532.87 575.104 1539.67 568.604 1544.47 567.004 C 1549.27 565.404 1564.07 566.104 1567.87 568.104 Z" fill="#000000" stroke="none"/>
  <path d="M 1623.07 553.504 C 1621.57 555.104 1621.37 561.104 1621.07 607.604 C 1620.77 658.404 1620.87 660.004 1622.77 661.404 C 1623.77 662.204 1626.57 662.804 1628.77 662.804 C 1633.87 662.804 1636.67 660.204 1636.47 655.504 C 1636.27 649.104 1636.37 589.304 1636.67 589.104 C 1637.17 588.504 1656.37 614.704 1668.67 632.804 C 1685.37 657.304 1685.47 657.404 1692.17 660.804 L 1698.07 663.704 L 1700.37 658.504 L 1702.77 653.304 L 1702.77 605.004 C 1702.77 558.304 1702.67 556.604 1700.87 555.204 C 1696.47 552.004 1691.77 554.704 1689.37 561.704 C 1688.67 564.004 1688.27 575.904 1688.27 597.404 C 1688.27 618.304 1687.87 629.804 1687.27 629.804 C 1685.17 629.804 1678.57 621.804 1671.87 611.204 C 1667.97 605.204 1658.87 591.204 1651.57 580.004 C 1639.67 561.904 1637.67 559.404 1632.77 556.204 C 1625.47 551.604 1624.87 551.404 1623.07 553.504 Z" fill="#000000" stroke="none"/>
  <path d="M 577.27 554.204 C 556.97 559.604 548.27 584.304 561.37 599.104 C 566.37 604.904 572.37 607.904 591.47 614.404 C 609.77 620.604 615.57 623.504 618.37 628.104 C 623.07 635.904 619.67 644.004 609.77 648.904 C 603.77 651.804 602.77 652.004 595.07 651.604 C 584.77 651.104 577.87 648.104 569.97 640.904 C 566.87 638.104 561.57 634.504 558.27 632.804 L 552.27 629.804 L 552.27 632.604 C 552.27 637.304 555.17 647.104 557.87 651.004 C 561.67 656.904 566.77 659.704 577.87 661.904 C 585.57 663.504 590.67 663.904 600.77 663.604 C 612.67 663.304 614.27 663.104 619.47 660.504 C 629.77 655.404 636.27 645.204 636.27 633.904 C 636.27 627.104 634.67 622.704 630.67 618.004 C 625.77 612.204 621.17 609.804 604.27 603.904 C 579.47 595.404 576.07 593.404 572.77 585.404 C 570.77 580.604 571.37 577.904 575.47 573.304 C 580.27 567.804 585.57 565.404 593.27 565.404 C 601.37 565.404 606.47 567.904 614.77 575.704 C 618.07 578.804 622.67 582.204 625.07 583.304 L 629.37 585.204 L 631.87 582.704 L 634.37 580.204 L 630.57 573.304 C 625.47 564.104 622.67 561.504 614.47 558.504 C 600.67 553.404 586.27 551.704 577.27 554.204 Z" fill="#000000" stroke="none"/>
  <path d="M 1741.27 553.604 L 1726.77 553.904 L 1723.57 557.004 C 1721.77 558.804 1720.27 560.604 1720.27 561.004 C 1720.27 561.404 1722.17 563.104 1724.47 564.804 C 1728.47 567.704 1728.77 567.804 1740.77 567.804 L 1753.07 567.804 L 1753.47 610.604 L 1753.87 653.304 L 1757.07 658.004 C 1758.87 660.604 1760.67 662.904 1761.07 663.204 C 1761.47 663.404 1763.37 661.304 1765.27 658.504 L 1768.77 653.404 L 1769.07 610.604 L 1769.37 567.804 L 1781.67 567.804 C 1793.77 567.804 1794.07 567.704 1798.07 564.804 C 1800.37 563.104 1802.27 561.404 1802.27 561.004 C 1802.27 560.604 1800.77 558.804 1799.07 557.104 L 1795.77 554.004 L 1775.77 553.704 C 1764.77 553.504 1749.27 553.404 1741.27 553.604 Z" fill="#000000" stroke="none"/>
  <path d="M 489.67 555.804 C 484.37 559.204 480.87 565.704 472.97 586.804 C 468.77 598.104 460.67 619.404 454.97 634.304 C 448.17 652.004 444.97 661.604 445.67 662.004 C 446.27 662.404 449.27 662.804 452.37 662.804 C 458.97 662.804 460.17 661.704 462.67 654.104 C 464.67 647.904 467.77 643.204 471.57 640.404 C 474.17 638.504 475.77 638.304 494.27 638.204 C 512.77 638.104 514.37 638.204 517.97 640.204 C 522.07 642.504 525.47 648.104 527.37 655.604 C 528.67 660.904 531.37 663.804 535.17 663.804 C 538.67 663.804 544.27 661.904 544.27 660.704 C 544.27 659.504 514.27 580.304 509.77 569.604 C 505.77 560.204 504.17 558.204 498.77 555.704 C 493.77 553.404 493.47 553.404 489.67 555.804 Z M 502.67 591.004 C 506.87 601.804 511.37 613.604 512.67 617.204 L 515.17 623.804 L 494.87 623.804 L 474.47 623.804 L 484.37 597.604 C 489.77 583.204 494.27 571.204 494.27 570.904 C 494.27 569.404 495.97 573.404 502.67 591.004 Z" fill="#000000" stroke="none"/>
  <path d="M 871.67 556.004 C 865.97 562.304 866.27 559.404 866.27 609.004 L 866.27 654.704 L 870.07 659.204 C 872.07 661.604 873.97 663.704 874.27 663.704 C 874.57 663.604 876.27 661.904 878.07 659.804 L 881.37 656.004 L 881.97 627.604 C 882.27 612.104 882.17 590.804 881.77 580.404 L 881.07 561.504 L 877.37 557.604 L 873.77 553.704 L 871.67 556.004 Z" fill="#000000" stroke="none"/>
  <path d="M 942.67 555.704 C 940.97 556.704 938.67 558.804 937.47 560.204 C 933.87 564.904 900.87 650.404 899.67 658.304 L 899.07 662.604 L 903.77 663.404 C 910.57 664.404 913.07 662.204 916.47 652.204 C 919.27 643.904 922.97 639.504 927.87 638.504 C 929.27 638.304 939.57 638.304 950.87 638.604 C 974.57 639.204 973.07 638.504 977.77 650.804 C 980.67 658.404 984.67 662.704 989.07 662.904 C 992.07 663.004 996.67 662.704 996.97 662.404 C 997.67 661.804 991.47 644.404 980.97 617.304 C 958.67 559.604 958.67 559.604 951.07 555.704 C 946.47 553.404 946.47 553.404 942.67 555.704 Z M 958.07 597.804 L 967.87 623.304 L 957.47 623.604 C 951.77 623.704 942.77 623.704 937.27 623.604 L 927.47 623.304 L 936.67 598.804 C 947.87 569.004 947.37 570.104 947.97 571.304 C 948.17 571.804 952.77 583.804 958.07 597.804 Z" fill="#000000" stroke="none"/>
  <path d="M 1120.37 557.304 C 1118.57 559.404 1116.67 562.104 1116.17 563.504 C 1115.67 564.904 1115.27 585.004 1115.27 609.704 L 1115.27 653.504 L 1119.37 658.704 C 1123.37 663.704 1123.57 663.804 1125.47 662.204 C 1126.47 661.204 1128.27 658.904 1129.47 657.004 C 1131.57 653.604 1131.57 652.604 1131.57 609.404 C 1131.67 561.404 1131.87 563.604 1125.97 556.504 L 1123.57 553.704 L 1120.37 557.304 Z" fill="#000000" stroke="none"/>
  <path d="M 1266.57 559.004 L 1263.87 564.304 L 1263.87 607.804 C 1263.87 655.004 1263.67 652.804 1269.47 661.104 L 1271.47 663.904 L 1274.47 659.104 C 1278.57 652.804 1279.17 646.604 1279.17 611.804 L 1279.27 584.404 L 1282.87 589.304 C 1284.77 592.104 1295.97 608.704 1307.57 626.304 C 1328.57 657.904 1328.87 658.304 1334.27 660.904 C 1337.27 662.404 1339.97 663.504 1340.27 663.304 C 1340.57 663.104 1341.97 660.804 1343.27 658.104 L 1345.67 653.304 L 1345.67 608.204 L 1345.67 563.004 L 1342.17 558.404 C 1340.37 555.904 1338.57 553.904 1338.27 553.804 C 1337.97 553.804 1336.17 555.704 1334.27 558.004 L 1330.77 562.304 L 1330.27 595.804 L 1329.77 629.304 L 1320.77 617.304 C 1315.77 610.704 1304.77 595.004 1296.27 582.404 C 1281.27 560.304 1280.57 559.504 1275.07 556.704 L 1269.27 553.804 L 1266.57 559.004 Z" fill="#000000" stroke="none"/>
  <path d="M 1820.27 605.404 C 1820.27 638.804 1820.67 657.604 1821.27 658.904 C 1821.87 659.904 1823.67 661.504 1825.27 662.304 C 1828.07 663.804 1828.37 663.704 1831.47 660.904 C 1834.47 658.204 1834.77 657.404 1835.47 649.704 C 1835.77 645.104 1835.87 636.804 1835.57 631.204 L 1834.97 621.104 L 1844.47 619.904 C 1854.57 618.604 1858.27 619.004 1862.27 621.804 C 1864.67 623.504 1869.97 631.804 1877.67 646.004 C 1882.57 655.004 1885.37 658.104 1891.67 661.804 C 1898.17 665.404 1898.77 665.504 1900.87 662.304 C 1902.37 659.904 1902.17 659.404 1890.77 639.104 L 1879.07 618.404 L 1881.97 616.404 C 1894.37 607.504 1900.37 598.004 1900.37 587.404 C 1900.37 569.404 1891.27 558.004 1874.37 554.804 C 1871.47 554.304 1858.07 553.804 1844.67 553.804 L 1820.27 553.804 L 1820.27 605.404 Z M 1876.87 570.404 C 1882.17 574.304 1883.67 577.404 1884.07 584.804 C 1884.57 593.904 1881.97 599.904 1875.87 603.104 C 1872.17 605.004 1869.97 605.304 1854.07 605.604 L 1836.27 606.004 L 1836.27 586.804 L 1836.27 567.704 L 1855.17 568.004 C 1872.47 568.304 1874.37 568.504 1876.87 570.404 Z" fill="#000000" stroke="none"/>
  <path d="M 1955.57 555.704 C 1951.07 558.504 1950.37 559.904 1941.27 583.304 C 1926.27 621.904 1911.27 661.104 1911.47 661.304 C 1912.57 662.104 1919.07 663.804 1920.97 663.804 C 1924.57 663.804 1927.87 659.804 1929.77 653.204 C 1931.67 646.504 1933.97 642.904 1937.97 640.204 C 1940.47 638.604 1943.07 638.304 1959.77 638.204 C 1985.77 637.904 1988.67 639.304 1993.57 654.604 C 1996.17 662.304 1998.77 664.504 2004.37 663.404 C 2012.47 661.904 2012.77 663.904 1997.87 625.304 C 1974.17 563.904 1971.97 558.704 1969.17 556.604 C 1965.27 553.704 1959.37 553.304 1955.57 555.704 Z M 1971.67 596.804 C 1976.97 610.804 1981.27 622.704 1981.27 623.104 C 1981.27 623.504 1972.27 623.804 1961.27 623.804 C 1950.27 623.804 1941.27 623.604 1941.27 623.404 C 1941.27 623.004 1952.77 592.704 1960.37 572.904 C 1960.87 571.604 1961.47 570.704 1961.67 570.904 C 1961.87 571.104 1966.37 582.804 1971.67 596.804 Z" fill="#000000" stroke="none"/>
  <path d="M 848.111 721.414 C 830.611 724.614 819.611 734.414 815.311 750.914 C 814.211 755.314 813.811 762.214 813.811 778.514 C 813.811 797.214 814.111 801.114 815.811 806.514 C 821.511 825.014 834.911 833.814 857.311 833.814 C 870.911 833.914 879.611 831.214 886.711 824.814 C 896.011 816.414 899.311 806.714 900.411 783.914 C 902.111 748.414 894.311 730.314 874.211 723.414 C 867.511 721.114 855.311 720.214 848.111 721.414 Z M 870.111 737.214 C 875.611 739.614 880.111 744.914 882.411 751.614 C 885.111 759.214 885.211 795.414 882.511 802.914 C 880.211 809.614 875.911 814.714 870.111 817.514 C 863.011 821.014 850.311 820.914 843.311 817.214 C 833.511 812.114 830.911 806.614 829.511 788.714 C 828.111 769.614 829.611 754.314 833.611 747.214 C 836.811 741.414 843.211 736.614 849.611 735.314 C 855.111 734.114 865.311 735.114 870.111 737.214 Z" fill="#000000" stroke="none"/>
  <path d="M 1244.811 721.414 C 1236.411 722.914 1229.011 726.414 1223.311 731.514 C 1212.711 741.314 1210.311 751.614 1211.011 783.914 C 1211.411 800.214 1211.811 803.814 1213.611 808.914 C 1219.411 824.814 1232.111 833.014 1252.911 834.114 C 1260.911 834.614 1263.811 834.314 1269.511 832.614 C 1282.511 828.614 1289.811 821.414 1296.711 806.114 L 1299.711 799.314 L 1296.611 796.514 L 1293.411 793.614 L 1289.011 796.614 C 1286.611 798.314 1283.211 801.714 1281.411 804.214 C 1272.911 816.514 1266.811 820.414 1255.711 820.414 C 1241.111 820.414 1231.611 814.414 1228.211 802.914 C 1225.711 794.414 1225.711 760.614 1228.211 752.214 C 1231.511 740.914 1239.011 735.514 1252.511 734.614 C 1265.511 733.814 1272.611 737.414 1279.511 748.114 C 1281.811 751.814 1284.511 754.314 1288.111 756.414 C 1294.111 759.814 1294.211 759.714 1295.411 750.514 C 1296.211 744.014 1293.611 738.314 1286.711 731.914 C 1276.911 722.714 1260.611 718.714 1244.811 721.414 Z" fill="#000000" stroke="none"/>
  <path d="M 1545.011 722.214 C 1542.911 723.914 1542.911 723.914 1542.711 776.214 C 1542.511 835.414 1542.011 831.914 1550.311 831.914 C 1558.511 831.914 1558.211 833.314 1557.911 792.914 C 1557.811 773.414 1558.011 757.414 1558.511 757.414 C 1561.111 757.514 1566.211 764.414 1586.711 795.014 C 1609.011 828.514 1609.411 828.914 1614.011 830.614 C 1619.611 832.614 1620.811 832.314 1623.111 828.514 C 1624.611 825.914 1624.811 820.814 1624.811 775.114 C 1624.811 747.314 1624.411 724.314 1624.011 724.014 C 1623.511 723.714 1621.311 723.214 1619.211 722.814 C 1616.111 722.414 1614.711 722.714 1612.811 724.214 L 1610.311 726.214 L 1609.811 762.614 L 1609.311 798.914 L 1600.711 787.414 C 1595.911 781.114 1585.211 765.814 1576.811 753.414 C 1568.511 741.014 1560.911 730.214 1560.011 729.214 C 1559.011 728.314 1555.811 726.014 1552.711 724.114 C 1547.511 720.814 1547.111 720.714 1545.011 722.214 Z" fill="#000000" stroke="none"/>
  <path d="M 1676.811 721.414 C 1665.411 723.414 1655.711 729.214 1651.311 736.814 C 1645.211 747.314 1646.211 759.614 1653.911 767.914 C 1659.711 774.214 1664.511 776.614 1682.511 782.814 C 1707.311 791.214 1711.411 793.914 1712.511 802.414 C 1713.511 809.514 1707.811 816.414 1698.911 819.114 C 1687.311 822.414 1671.311 818.714 1663.711 810.714 C 1661.811 808.814 1657.711 805.714 1654.511 803.714 L 1648.611 800.214 L 1645.311 803.414 L 1641.911 806.714 L 1645.111 811.214 C 1657.511 828.514 1666.711 832.914 1691.311 832.914 C 1704.011 832.914 1704.511 832.814 1711.011 829.614 C 1718.811 825.814 1724.011 820.214 1726.211 813.514 C 1731.411 797.614 1727.611 786.814 1714.111 779.614 C 1710.911 777.914 1701.911 774.314 1694.111 771.614 C 1670.811 763.414 1665.911 759.914 1665.011 750.514 C 1664.411 744.214 1666.811 740.614 1674.011 737.014 C 1677.911 735.014 1680.711 734.414 1685.411 734.414 C 1693.611 734.414 1699.511 737.014 1706.611 743.814 C 1710.411 747.414 1714.511 750.114 1718.711 751.814 C 1722.311 753.214 1725.311 754.414 1725.411 754.414 C 1725.711 754.414 1723.211 745.314 1721.911 742.114 C 1715.611 726.214 1697.511 717.814 1676.811 721.414 Z" fill="#000000" stroke="none"/>
  <path d="M 2109.811 721.514 C 2102.911 722.714 2093.311 727.114 2088.511 731.314 C 2084.111 735.214 2079.211 744.814 2077.811 752.314 C 2076.111 761.514 2075.511 782.414 2076.611 793.414 C 2077.911 806.214 2079.911 812.514 2084.411 818.714 C 2091.911 829.014 2103.011 833.814 2119.811 833.914 C 2141.811 833.914 2155.011 825.914 2160.911 808.714 C 2164.411 798.614 2163.111 795.414 2155.511 795.414 C 2151.511 795.414 2148.911 797.914 2146.011 804.714 C 2142.811 812.014 2140.311 815.014 2135.111 817.514 C 2131.111 819.414 2128.711 819.814 2120.311 819.814 C 2111.111 819.914 2109.911 819.614 2105.111 817.014 C 2102.211 815.414 2098.811 812.514 2097.411 810.414 C 2092.911 803.614 2092.311 799.514 2092.311 775.914 C 2092.311 751.614 2092.611 750.114 2099.011 742.914 C 2103.911 737.214 2108.911 735.214 2119.311 734.614 C 2127.711 734.214 2128.611 734.414 2133.811 737.114 C 2138.111 739.414 2140.211 741.414 2144.211 747.214 C 2147.911 752.814 2150.211 755.114 2153.911 756.914 C 2156.511 758.314 2158.911 759.014 2159.111 758.614 C 2159.311 758.214 2160.111 755.614 2160.811 752.714 C 2162.011 748.214 2161.911 747.014 2160.411 743.114 C 2157.011 734.114 2147.811 726.414 2136.111 722.914 C 2129.811 721.014 2116.711 720.314 2109.811 721.514 Z" fill="#000000" stroke="none"/>
  <path d="M 2259.311 721.114 C 2243.111 723.214 2231.611 732.014 2226.711 746.014 C 2223.511 755.114 2222.711 765.214 2223.711 785.914 C 2224.711 808.114 2226.111 813.214 2233.411 821.314 C 2247.011 836.414 2278.311 838.614 2295.311 825.614 C 2306.711 817.014 2309.811 806.714 2309.811 778.114 C 2309.811 756.614 2308.311 747.514 2303.311 739.014 C 2295.411 725.614 2278.211 718.614 2259.311 721.114 Z M 2281.111 738.214 C 2286.411 741.114 2289.711 745.114 2292.411 752.414 C 2293.911 756.114 2294.211 760.514 2294.211 776.914 C 2294.311 798.714 2293.711 802.214 2288.811 809.514 C 2278.611 824.914 2251.011 823.514 2242.711 807.214 C 2239.811 801.614 2238.511 788.214 2239.011 770.414 C 2239.411 757.214 2239.811 754.214 2241.711 749.914 C 2246.811 738.514 2255.411 733.914 2269.811 735.014 C 2274.211 735.314 2277.811 736.414 2281.111 738.214 Z" fill="#000000" stroke="none"/>
  <path d="M 1396.211 722.514 C 1394.511 723.014 1392.411 724.214 1391.611 725.114 C 1388.411 728.714 1350.111 828.114 1351.411 829.414 C 1351.911 829.914 1354.511 830.914 1357.111 831.614 C 1363.511 833.314 1364.711 832.314 1367.811 823.614 C 1370.711 815.214 1373.611 811.114 1378.111 808.714 C 1380.811 807.314 1384.311 807.014 1400.511 807.114 C 1417.611 807.214 1420.111 807.414 1423.011 809.114 C 1427.111 811.514 1430.511 816.514 1432.011 822.214 C 1433.511 828.114 1437.211 832.414 1440.711 832.414 C 1444.511 832.414 1449.811 830.514 1449.811 829.114 C 1449.811 828.114 1423.711 760.014 1414.511 736.914 C 1411.711 729.914 1409.211 725.414 1407.711 724.314 C 1404.611 722.014 1400.111 721.314 1396.211 722.514 Z M 1410.211 764.914 C 1415.411 778.714 1420.011 790.714 1420.311 791.614 C 1421.011 793.314 1419.611 793.414 1400.411 793.414 C 1389.111 793.414 1379.811 793.214 1379.811 793.014 C 1379.811 792.614 1396.511 748.214 1399.011 742.114 C 1399.611 740.614 1400.211 739.514 1400.411 739.714 C 1400.611 739.814 1405.011 751.214 1410.211 764.914 Z" fill="#000000" stroke="none"/>
  <path d="M 2334.911 723.114 L 2332.511 724.714 L 2333.211 775.314 L 2333.911 825.914 L 2337.311 829.414 L 2340.711 832.814 L 2343.411 830.414 C 2344.811 829.014 2346.511 827.014 2347.111 825.914 C 2347.811 824.514 2348.111 813.114 2347.911 790.614 C 2347.811 772.414 2347.911 757.414 2348.211 757.414 C 2349.311 757.414 2369.311 784.714 2382.311 804.014 C 2389.411 814.414 2396.111 824.014 2397.211 825.214 C 2398.911 827.214 2407.611 832.414 2409.111 832.414 C 2409.311 832.414 2410.711 829.814 2412.211 826.514 L 2414.811 820.614 L 2414.811 777.814 C 2414.711 732.914 2414.511 730.014 2410.211 725.314 C 2408.211 723.114 2402.611 722.714 2400.911 724.714 C 2400.211 725.614 2399.711 737.614 2399.611 762.514 L 2399.311 798.914 L 2391.811 789.014 C 2387.711 783.614 2376.611 767.814 2367.211 754.014 C 2352.511 732.414 2349.411 728.414 2344.711 725.214 C 2338.511 720.914 2338.111 720.814 2334.911 723.114 Z" fill="#000000" stroke="none"/>
  <path d="M 453.811 723.314 L 451.311 724.014 L 451.011 778.214 L 450.811 832.414 L 481.611 832.414 L 512.411 832.414 L 516.611 829.714 C 518.911 828.214 520.711 826.514 520.511 826.014 C 520.311 825.514 518.311 823.814 516.011 822.114 L 511.711 819.014 L 488.811 818.914 L 465.811 818.914 L 465.811 774.814 C 465.811 745.214 465.411 729.714 464.711 727.514 C 463.011 722.814 459.911 721.614 453.811 723.314 Z" fill="#000000" stroke="none"/>
  <path d="M 569.411 724.514 C 568.011 725.614 566.111 727.814 565.411 729.314 C 563.111 733.614 527.811 827.914 527.811 829.614 C 527.811 830.414 528.711 831.914 529.711 832.814 C 531.611 834.514 531.911 834.414 537.511 830.614 C 542.411 827.314 543.611 825.814 544.711 822.214 C 546.611 815.814 550.111 810.914 554.511 808.914 C 557.811 807.314 560.611 807.114 577.711 807.314 C 599.211 807.614 601.411 808.114 604.811 813.714 C 605.911 815.514 607.511 819.314 608.411 822.314 C 611.011 831.414 615.611 834.114 623.711 831.314 C 626.011 830.514 626.711 829.714 626.311 828.414 C 626.011 827.514 617.211 804.514 606.811 777.314 C 585.611 721.914 585.811 722.414 576.911 722.414 C 573.511 722.414 571.311 723.014 569.411 724.514 Z M 587.611 766.114 C 593.211 780.714 597.711 792.914 597.511 793.114 C 597.311 793.314 587.811 793.314 576.611 793.214 L 556.011 792.914 L 566.111 766.114 C 571.611 751.414 576.411 739.414 576.711 739.414 C 577.011 739.414 581.911 751.414 587.611 766.114 Z" fill="#000000" stroke="none"/>
  <path d="M 667.111 723.514 C 665.311 724.014 663.811 724.714 663.811 725.114 C 663.811 727.314 698.511 824.214 700.311 827.014 C 701.011 828.214 703.311 829.914 705.311 830.814 C 712.911 834.414 719.811 830.314 723.811 819.914 C 725.011 816.614 732.211 796.114 739.811 774.414 C 747.411 752.714 754.311 732.914 755.211 730.514 C 756.111 728.114 756.811 725.814 756.811 725.314 C 756.811 724.014 749.111 722.314 746.311 723.014 C 742.511 724.014 740.311 727.814 734.911 743.514 C 727.111 766.514 711.711 809.814 710.811 811.314 C 710.311 812.214 709.711 811.714 708.911 809.314 C 705.911 801.014 684.911 740.214 682.911 734.314 C 679.711 724.414 674.911 721.114 667.111 723.514 Z" fill="#000000" stroke="none"/>
  <path d="M 927.311 726.814 L 923.811 731.114 L 923.211 777.014 C 922.511 829.014 922.611 830.014 928.811 832.114 C 932.611 833.414 959.211 833.614 976.311 832.514 C 985.411 832.014 986.611 831.614 990.011 828.914 C 992.111 827.214 993.811 825.614 993.811 825.214 C 993.811 824.814 992.011 823.214 989.711 821.714 C 985.611 819.014 985.611 819.014 962.811 818.614 C 940.511 818.214 940.011 818.114 939.411 816.014 C 939.111 814.914 938.811 796.014 938.811 774.214 C 938.811 749.314 938.411 733.514 937.811 731.814 C 937.211 730.314 935.411 727.614 933.811 725.814 L 930.911 722.414 L 927.311 726.814 Z" fill="#000000" stroke="none"/>
  <path d="M 1011.211 723.914 C 1010.811 724.714 1010.711 748.014 1010.911 775.514 L 1011.311 825.614 L 1014.911 828.914 L 1018.511 832.214 L 1032.711 832.914 C 1040.611 833.314 1053.911 833.314 1062.311 832.914 L 1077.611 832.214 L 1081.711 828.014 C 1085.611 824.014 1085.811 823.514 1084.711 821.114 L 1083.511 818.414 L 1055.111 818.414 L 1026.811 818.414 L 1026.811 800.914 L 1026.811 783.414 L 1047.111 783.414 C 1068.211 783.414 1071.111 782.914 1077.311 778.114 C 1079.111 776.714 1079.011 776.514 1074.311 773.514 L 1069.411 770.414 L 1048.111 770.414 L 1026.811 770.414 L 1026.811 752.914 L 1026.811 735.414 L 1052.211 735.414 C 1076.311 735.414 1077.711 735.314 1080.211 733.314 C 1083.311 730.914 1083.511 728.514 1080.911 725.314 L 1079.011 722.914 L 1045.411 722.614 C 1015.711 722.314 1011.711 722.514 1011.211 723.914 Z" fill="#000000" stroke="none"/>
  <path d="M 1176.511 728.614 L 1172.811 734.914 L 1172.811 767.114 C 1172.811 794.914 1172.611 799.414 1171.311 799.414 C 1170.511 799.414 1165.611 793.014 1160.511 785.114 C 1155.311 777.314 1145.011 761.714 1137.611 750.414 C 1130.211 739.114 1122.911 728.814 1121.311 727.614 C 1119.811 726.414 1116.711 724.914 1114.511 724.214 C 1110.811 723.114 1110.411 723.214 1108.711 725.314 C 1107.711 726.514 1106.611 729.014 1106.311 730.714 C 1105.911 732.514 1105.811 754.514 1106.011 779.614 L 1106.311 825.414 L 1110.011 829.114 C 1113.711 832.814 1113.711 832.814 1115.911 830.814 C 1120.711 826.514 1120.811 825.614 1120.811 790.214 L 1120.911 756.914 L 1123.911 760.414 C 1128.711 765.914 1143.311 786.314 1156.311 805.414 C 1162.811 815.014 1169.111 824.014 1170.211 825.214 C 1171.911 827.214 1180.611 832.414 1182.111 832.414 C 1182.311 832.414 1183.711 829.814 1185.211 826.514 L 1187.811 820.614 L 1187.811 778.514 C 1187.811 733.314 1187.811 733.814 1182.511 726.014 L 1180.111 722.414 L 1176.511 728.614 Z" fill="#000000" stroke="none"/>
  <path d="M 1322.311 723.314 L 1319.311 723.914 L 1319.311 774.614 L 1319.311 825.414 L 1322.911 828.914 L 1326.511 832.514 L 1330.011 828.614 L 1333.511 824.814 L 1334.111 806.414 C 1335.211 778.014 1334.911 732.414 1333.711 728.114 C 1332.311 723.014 1329.411 721.814 1322.311 723.314 Z" fill="#000000" stroke="none"/>
  <path d="M 1741.811 725.514 L 1737.411 728.714 L 1741.611 732.514 C 1746.111 736.714 1746.411 736.814 1763.911 736.414 L 1770.511 736.314 L 1771.011 779.414 L 1771.611 822.414 L 1774.911 827.414 C 1776.811 830.114 1778.511 832.414 1778.811 832.414 C 1779.111 832.414 1780.911 830.114 1782.811 827.314 L 1786.311 822.114 L 1786.611 779.314 L 1787.011 736.514 L 1798.611 736.714 C 1810.911 736.814 1811.511 736.614 1816.811 732.114 L 1820.111 729.314 L 1816.911 726.114 L 1813.811 722.914 L 1780.011 722.614 L 1746.211 722.314 L 1741.811 725.514 Z" fill="#000000" stroke="none"/>
  <path d="M 1840.211 723.814 C 1838.411 725.214 1838.311 727.114 1838.011 775.414 L 1837.711 825.514 L 1841.211 829.014 L 1844.711 832.514 L 1848.211 829.914 C 1850.111 828.514 1851.911 826.514 1852.311 825.614 C 1852.711 824.714 1853.311 801.614 1853.611 774.214 L 1854.111 724.614 L 1850.211 723.514 C 1845.011 722.014 1842.611 722.114 1840.211 723.814 Z" fill="#000000" stroke="none"/>
  <path d="M 1973.911 726.314 L 1969.611 730.314 L 1970.111 766.114 C 1970.611 802.814 1971.011 806.614 1975.011 815.114 C 1981.611 829.214 1999.411 836.514 2020.111 833.614 C 2039.411 830.914 2050.811 820.014 2053.711 801.414 C 2055.111 793.114 2055.111 730.414 2053.811 727.014 C 2052.511 723.414 2048.911 721.914 2044.111 723.114 L 2040.311 724.014 L 2039.711 760.914 C 2039.311 785.014 2038.711 799.214 2037.911 801.614 C 2035.811 808.214 2030.711 814.614 2025.311 817.414 C 2021.211 819.514 2019.011 819.914 2012.211 819.914 C 2005.211 819.914 2003.311 819.514 1998.311 816.914 C 1986.611 810.814 1984.811 803.314 1984.811 758.914 L 1984.811 730.814 L 1981.711 726.614 C 1980.011 724.314 1978.511 722.414 1978.411 722.414 C 1978.211 722.414 1976.211 724.214 1973.911 726.314 Z" fill="#000000" stroke="none"/>
  <path d="M 2188.611 726.214 L 2185.011 730.114 L 2184.711 767.514 C 2184.511 788.114 2184.411 809.314 2184.611 814.614 C 2185.011 824.014 2185.111 824.414 2188.511 828.314 C 2190.411 830.614 2192.411 832.414 2192.911 832.414 C 2193.411 832.414 2195.111 830.514 2196.811 828.214 L 2199.811 824.114 L 2199.811 777.214 L 2199.811 730.314 L 2196.011 726.314 L 2192.211 722.214 L 2188.611 726.214 Z" fill="#000000" stroke="none"/>
  <path d="M 2551.011 726.414 C 2549.111 728.614 2547.211 731.914 2546.711 733.714 C 2545.511 738.014 2545.511 824.514 2546.811 827.814 C 2548.611 832.514 2550.311 832.814 2580.811 832.614 L 2609.211 832.414 L 2612.711 829.614 C 2614.611 828.014 2616.311 826.314 2616.511 825.714 C 2616.711 825.214 2615.011 823.414 2612.811 821.914 L 2608.711 819.114 L 2585.411 818.614 L 2562.111 818.114 L 2561.511 775.214 L 2560.911 732.214 L 2557.711 727.314 C 2556.011 724.614 2554.511 722.414 2554.411 722.414 C 2554.411 722.414 2552.811 724.214 2551.011 726.414 Z" fill="#000000" stroke="none"/>
  <path d="M 774.811 773.914 L 774.811 824.514 L 778.811 828.714 L 782.711 832.914 L 786.511 829.114 L 790.311 825.414 L 790.611 777.914 C 790.711 751.814 790.511 728.914 790.011 727.114 C 789.211 723.914 789.211 723.914 782.011 723.614 L 774.811 723.314 L 774.811 773.914 Z" fill="#000000" stroke="none"/>
  <path d="M 1500.111 775.114 L 1500.811 826.914 L 1503.611 829.714 C 1506.011 832.114 1506.811 832.414 1509.111 831.514 C 1510.511 830.914 1512.611 829.614 1513.811 828.414 C 1515.811 826.414 1515.811 825.414 1515.811 774.914 L 1515.811 723.414 L 1507.611 723.414 L 1499.511 723.414 L 1500.111 775.114 Z" fill="#000000" stroke="none"/>
  <path d="M 1870.011 727.614 C 1873.511 733.914 1877.311 735.714 1889.311 736.414 C 1905.211 737.514 1903.811 734.414 1903.811 768.214 C 1903.811 784.014 1904.111 803.414 1904.511 811.414 L 1905.111 825.914 L 1908.711 829.114 C 1910.611 830.914 1912.511 832.414 1912.811 832.414 C 1913.111 832.414 1914.811 830.514 1916.611 828.214 L 1919.811 824.014 L 1919.811 781.414 L 1919.811 738.714 L 1928.611 736.914 C 1947.811 732.914 1952.911 730.414 1951.311 725.414 C 1950.711 723.514 1949.511 723.414 1909.211 723.414 L 1867.711 723.414 L 1870.011 727.614 Z" fill="#000000" stroke="none"/>
  <path d="M 2474.311 725.214 C 2469.911 727.914 2469.511 728.714 2463.811 742.914 C 2457.811 757.914 2431.711 826.114 2431.111 828.514 C 2430.611 830.414 2435.211 832.414 2439.911 832.414 C 2444.011 832.414 2446.211 829.714 2448.611 821.814 C 2450.711 814.814 2453.611 811.014 2458.811 808.414 C 2462.611 806.414 2498.711 806.814 2502.711 808.914 C 2506.911 811.014 2510.411 816.014 2511.911 821.714 C 2513.611 828.514 2517.111 832.414 2521.311 832.414 C 2525.811 832.414 2529.811 830.814 2529.811 829.014 C 2529.811 827.614 2510.211 776.414 2497.811 745.414 C 2494.411 736.914 2490.911 729.114 2490.011 728.014 C 2485.711 723.314 2479.311 722.214 2474.311 725.214 Z M 2490.811 766.014 L 2500.611 791.914 L 2490.211 792.214 C 2484.411 792.314 2475.311 792.314 2469.911 792.214 L 2460.211 791.914 L 2470.111 765.614 C 2475.611 751.214 2480.311 739.514 2480.511 739.814 C 2480.711 740.014 2485.311 751.814 2490.811 766.014 Z" fill="#000000" stroke="none"/>
  <style>
    path { fill: #0F2A7D}
  </style>
</svg>

