<?xml version="1.0"?>
<svg width="128" height="128" xmlns="http://www.w3.org/2000/svg" xmlns:svg="http://www.w3.org/2000/svg" preserveAspectRatio="xMidYMid meet" version="1.0">
 <g class="layer">
  <g fill="none" id="svg_1" transform="matrix(0.0131192, 0, 0, -0.0160458, 25.5984, 158.654)">
   <path d="m2723.63,9839.42c-337.01,-24.37 -644.11,-99.3 -938.25,-230.19c-265.22,-118.26 -487.57,-265.4 -706.93,-469.41c-346.98,-323.17 -552.38,-658.08 -684,-1117.56c-36.89,-126.38 -64.81,-144.43 -258.24,-158.88c-106.69,-8.12 -256.25,-37.01 -383.88,-74.02c-502.53,-145.34 -900.36,-506.42 -1080.83,-980.35c-75.78,-199.5 -106.69,-380.95 -97.71,-583.15c11.96,-285.26 77.77,-445.94 358.95,-874.73c69.8,-105.62 126.63,-193.18 126.63,-194.99c0,-1.81 -27.92,-22.57 -61.82,-46.94c-93.73,-65.9 -280.18,-232 -364.93,-324.07c-293.14,-316.85 -459.65,-714.05 -477.6,-1137.42c-5.98,-154.36 2.99,-210.33 47.86,-291.58c32.9,-59.58 113.67,-134.5 176.48,-163.39c168.51,-77.63 362.94,-53.26 493.55,60.48c97.71,84.86 129.62,162.49 157.54,376.43c28.92,223.87 57.83,317.76 143.58,461.29c148.56,247.34 416.78,459.48 692.97,548.85c100.7,32.5 223.35,54.16 278.18,48.75l33.9,-2.71l-45.87,-58.68c-213.37,-275.33 -307.1,-423.37 -414.78,-655.37c-198.42,-428.79 -295.14,-940.63 -276.19,-1463.3c8.97,-248.25 29.91,-317.76 126.63,-413.44c85.75,-83.95 184.46,-121.87 317.07,-121.87c169.5,0 301.12,67.7 369.92,189.57c52.85,92.98 61.82,154.36 70.79,491.98c7.98,318.66 12.96,368.31 48.86,551.56c69.8,355.67 252.26,716.75 492.56,976.74c141.59,154.36 377.89,343.93 629.16,504.62c294.14,189.57 574.32,306.92 878.43,368.31c431.74,87.56 940.25,73.12 1291.22,-36.11c358.95,-112.84 918.31,-429.69 1184.53,-671.62c307.1,-278.04 509.51,-622.87 599.24,-1018.26c41.88,-180.54 48.86,-260.88 79.77,-837.72c9.97,-206.72 25.92,-268.11 88.74,-353.86c77.77,-104.71 180.47,-156.17 325.05,-163.39c216.37,-9.93 367.92,84.86 439.71,274.43c24.93,66.8 26.92,83.95 31.91,275.33c11.96,548.85 -80.76,1021.87 -288.16,1466.01c-92.73,198.6 -245.28,440.52 -372.91,591.28c-46.86,55.07 -78.77,107.42 -70.79,114.64c8.97,8.12 176.48,-22.57 261.23,-47.84c398.83,-117.35 682,-372.82 816.61,-737.52c32.9,-89.37 74.78,-274.43 74.78,-334c0,-16.25 6.98,-56.87 14.96,-91.17c47.86,-204.01 212.38,-338.52 415.78,-339.42c198.42,-0.9 357.95,107.42 419.77,284.35c55.84,160.68 4.99,549.75 -107.68,821.47c-108.68,263.59 -234.31,424.28 -599.24,769.11c-95.72,90.27 -173.49,167.9 -173.49,174.22c0,5.42 28.92,43.33 63.81,83.95c228.33,265.4 361.94,533.5 405.81,808.83c14.96,93.88 6.98,336.71 -14.96,441.43c-126.63,621.97 -541.41,1077.84 -1140.66,1256.58c-134.61,39.72 -278.18,66.8 -434.73,81.24c-116.66,10.83 -153.55,22.57 -178.48,57.77c-8.97,11.74 -31.91,76.73 -50.85,142.63c-51.85,178.74 -97.71,293.38 -185.46,454.07c-218.36,402.61 -562.35,746.54 -977.14,974.93c-294.14,162.49 -676.02,282.55 -1031.98,324.98c-116.66,13.54 -438.71,24.37 -538.42,17.15zm440.71,-802.51c461.65,-59.58 878.43,-284.35 1157.61,-625.58c336.02,-409.83 430.74,-953.27 250.27,-1430.8c-218.36,-576.83 -782.71,-987.57 -1464.71,-1063.4c-139.59,-15.35 -375.9,-5.42 -524.46,22.57c-851.51,160.68 -1455.73,888.27 -1381.95,1664.6c19.94,207.62 74.78,387.26 172.49,565.1c269.21,489.27 773.73,808.83 1379.96,874.73c78.77,9.03 320.06,4.51 410.8,-7.22zm2563.49,-1972.43c436.72,-94.78 740.83,-497.4 666.05,-882.85c-32.9,-171.52 -110.68,-306.02 -249.27,-431.5c-107.68,-97.49 -207.39,-153.46 -344.99,-194.99c-80.76,-23.47 -114.66,-27.98 -226.34,-32.5c-111.67,-3.61 -146.57,-0.9 -225.34,15.35c-174.49,37.01 -307.1,107.42 -438.71,236.51l-85.75,83.95l21.94,23.47c337.01,371.02 481.59,609.33 601.24,996.6c56.83,181.45 73.78,204.01 150.56,204.01c25.92,0 84.75,-8.12 130.62,-18.05zm-5407.16,-9.03l41.88,-18.05l32.9,-115.55c102.7,-362.89 283.17,-686.06 525.46,-944.24c31.91,-33.4 67.8,-73.12 80.76,-86.66l22.93,-25.28l-58.83,-66.8c-122.64,-136.31 -288.16,-230.19 -475.61,-266.3c-87.74,-17.15 -301.12,-10.83 -388.86,10.83c-164.52,40.62 -346.98,149.85 -453.67,271.72c-69.8,79.44 -149.56,223.87 -175.49,315.05c-25.92,92.98 -23.93,248.25 4.99,347.54c84.75,294.28 339.01,520.87 649.1,581.35c92.73,18.05 146.57,17.15 194.43,-3.61z" fill="null" fill-opacity="null" id="svg_2" stroke="null" stroke-dasharray="null" stroke-linecap="null" stroke-linejoin="null" stroke-opacity="null" stroke-width="null"/>
  </g>
 </g>
<style>
        path { fill: #000; }
        @media (prefers-color-scheme: dark) {
            path { fill: #FFF; }
        }
    </style>
</svg>